<svg xmlns="http://www.w3.org/2000/svg" width="320" height="220" viewBox="0 0 320 220" fill="none">
  <g stroke="currentColor" stroke-width="2" opacity=".16">
    <rect x="1" y="1" width="78" height="48" rx="24"/><rect x="81" y="1" width="78" height="48" rx="24"/>
    <rect x="161" y="1" width="78" height="48" rx="24"/><rect x="241" y="1" width="78" height="48" rx="24"/>
    <rect x="-39" y="51" width="78" height="48" rx="24"/><rect x="41" y="51" width="78" height="48" rx="24"/>
    <rect x="121" y="51" width="78" height="48" rx="24"/><rect x="201" y="51" width="78" height="48" rx="24"/>
    <rect x="281" y="51" width="78" height="48" rx="24"/>
    <rect x="1" y="101" width="78" height="48" rx="24"/><rect x="81" y="101" width="78" height="48" rx="24"/>
    <rect x="161" y="101" width="78" height="48" rx="24"/><rect x="241" y="101" width="78" height="48" rx="24"/>
    <rect x="-39" y="151" width="78" height="48" rx="24"/><rect x="41" y="151" width="78" height="48" rx="24"/>
    <rect x="121" y="151" width="78" height="48" rx="24"/><rect x="201" y="151" width="78" height="48" rx="24"/>
    <rect x="281" y="151" width="78" height="48" rx="24"/>
  </g>
</svg>
